<?xml version="1.0" encoding="utf-8"?>
<!-- Generator: Adobe Illustrator 16.0.3, SVG Export Plug-In . SVG Version: 6.00 Build 0)  -->
<!DOCTYPE svg PUBLIC "-//W3C//DTD SVG 1.1//EN" "http://www.w3.org/Graphics/SVG/1.1/DTD/svg11.dtd">
<svg version="1.1" id="Capa_1" xmlns="http://www.w3.org/2000/svg" xmlns:xlink="http://www.w3.org/1999/xlink" x="0px" y="0px"
	 width="961.058px" height="319px" viewBox="0 0 961.058 319" enable-background="new 0 0 961.058 319" xml:space="preserve">
<rect x="8.306" y="71.376" fill="#AA0B36" stroke="#000000" stroke-miterlimit="10" width="50.476" height="114.075"/>
<rect x="193.852" y="133.966" fill="#AA0B36" stroke="#000000" stroke-miterlimit="10" width="50.477" height="172.627"/>
<rect x="257.451" y="133.966" fill="#AA0B36" stroke="#000000" stroke-miterlimit="10" width="50.477" height="112.057"/>
<rect x="69.888" y="10.805" fill="#AA0B36" stroke="#000000" stroke-miterlimit="10" width="50.475" height="174.646"/>
<rect x="131.468" y="133.966" fill="#AA0B36" stroke="#000000" stroke-miterlimit="10" width="50.475" height="51.485"/>
<rect x="8.306" y="195.546" fill="#AA0B36" stroke="#000000" stroke-miterlimit="10" width="173.637" height="50.476"/>
<rect x="131.87" y="10.805" fill="#AA0B36" stroke="#000000" stroke-miterlimit="10" width="123.965" height="50.476"/>
<rect x="131.468" y="71.376" fill="#AA0B36" stroke="#000000" stroke-miterlimit="10" width="187.564" height="50.476"/>
<rect x="58.782" y="256.117" fill="#AA0B36" stroke="#000000" stroke-miterlimit="10" width="123.162" height="50.476"/>
<rect x="135.963" y="15.828" fill="none" width="171.43" height="78.571"/>
<text transform="matrix(1 0 0 1 135.9634 52.7656)" font-family="'MS-Gothic'" font-size="48">漫画</text>
<rect x="139.911" y="76.864" fill="none" width="186.812" height="47.289"/>
<text transform="matrix(1 0 0 1 139.9111 113.8018)" font-family="'MS-Gothic'" font-size="48">図書館</text>
<rect x="347.588" y="129.028" fill="none" width="922.454" height="233.988"/>
<text transform="matrix(1 0 0 1 347.5879 203.2207)" fill="#FCFCFC" font-family="'MingLiU-ExtB'" font-size="109">BIBLIOMANGA</text>
</svg>
