<?xml version="1.0" encoding="utf-8"?>
<!-- Generator: Adobe Illustrator 22.0.0, SVG Export Plug-In . SVG Version: 6.00 Build 0)  -->
<svg version="1.1" id="Layer_1" xmlns="http://www.w3.org/2000/svg" xmlns:xlink="http://www.w3.org/1999/xlink" x="0px" y="0px"
	 viewBox="0 0 355.7 89.3" style="enable-background:new 0 0 355.7 89.3;" xml:space="preserve">
<style type="text/css">
	.st0{fill:#C5C3C0;}
</style>
<g>
	<path class="st0" d="M44.4,89.1c23.2,0,42.3-17.9,44.1-40.7l-23.7-9.8c-2,1.4-4.4,2.2-7,2.2c-0.2,0-0.5,0-0.7,0L46.5,56
		c0,0.1,0,0.1,0,0.2c0,9.2-7.5,16.7-16.7,16.7s-16.7-7.5-16.7-16.7s7.5-16.7,16.7-16.7c0.1,0,0.3,0,0.4,0l15-10.7c0-0.2,0-0.4,0-0.6
		c0-6.9,5.6-12.5,12.5-12.5c6.1,0,11.1,4.3,12.3,10.1l17,7C81.7,14.2,64.6,0.6,44.4,0.6C20,0.6,0.2,20.4,0.2,44.8
		C0.2,69.3,20,89.1,44.4,89.1"/>
	<path class="st0" d="M60.8,22l5.4,2.2c-1-2-2.6-3.7-4.8-4.6c-4.8-2-10.3,0.3-12.3,5.1c-1,2.3-1,4.9,0,7.2s2.8,4.1,5.1,5.1
		s4.8,0.9,6.9,0.1l-5.6-2.3c-3.5-1.5-5.2-5.5-3.7-9C53.2,22.1,57.2,20.5,60.8,22"/>
	<path class="st0" d="M18.7,56.2c0,6.1,5,11.1,11.1,11.1s11.1-5,11.1-11.1s-5-11.1-11.1-11.1C23.7,45.1,18.7,50.1,18.7,56.2
		 M38.1,56.3c0,4.6-3.7,8.4-8.4,8.4s-8.4-3.7-8.4-8.4S25,48,29.7,48S38.1,51.6,38.1,56.3"/>
</g>
<g>
	<path class="st0" d="M189.2,30.7l-3,5.2c-2.3-1.6-5.4-2.6-8.1-2.6c-3.1,0-5,1.3-5,3.6c0,2.8,3.4,3.4,8.4,5.2
		c5.4,1.9,8.5,4.2,8.5,9.1c0,6.8-5.3,10.6-13,10.6c-3.7,0-8.3-1-11.7-3.1l2.2-5.8c2.8,1.5,6.2,2.4,9.2,2.4c4.1,0,6-1.5,6-3.7
		c0-2.5-2.9-3.3-7.7-4.9c-5.4-1.8-9.1-4.2-9.1-9.7c0-6.2,5-9.8,12.1-9.8C183,27.4,187,29,189.2,30.7"/>
	<polygon class="st0" points="212.2,34.3 212.2,61.6 205.2,61.6 205.2,34.3 195.1,34.3 195.1,28.3 222.3,28.3 222.3,34.3 	"/>
	<polygon class="st0" points="237.2,34 237.2,41.5 250.6,41.5 250.6,47.5 237.2,47.5 237.2,55.3 252.7,55.3 252.7,61.3 230.2,61.3 
		230.2,28 252.7,28 252.7,34 	"/>
	<path class="st0" d="M268.3,54.9l-2.2,6.5h-7.3L271.2,28h7L291,61.3h-7.6l-2.3-6.5L268.3,54.9L268.3,54.9z M274.7,36l-4.6,13.3h9.2
		L274.7,36z"/>
	<polygon class="st0" points="326.9,40.9 317.8,60.4 313.9,60.4 304.9,41.1 304.9,61.3 298.2,61.3 298.2,28 304.9,28 316.1,52.1 
		326.9,28 333.6,28 333.6,61.3 326.9,61.3 	"/>
	<path class="st0" d="M347.1,32.2c0,2.9-2.1,4.6-4.6,4.6s-4.6-1.8-4.6-4.6c0-2.9,2.2-4.6,4.6-4.6C345,27.6,347.1,29.3,347.1,32.2
		 M338.6,32.2c0,2.4,1.7,3.9,3.8,3.9c2.1,0,3.8-1.5,3.8-3.9s-1.7-3.9-3.8-3.9C340.4,28.3,338.6,29.8,338.6,32.2 M342.6,29.8
		c1.2,0,1.6,0.6,1.6,1.3c0,0.6-0.4,1-0.8,1.3l1.1,2h-0.9l-0.9-1.8h-0.9v1.8h-0.7v-4.6C341.1,29.8,342.6,29.8,342.6,29.8z M341.7,32
		h0.8c0.5,0,0.8-0.3,0.8-0.7c0-0.4-0.2-0.7-0.8-0.7h-0.8V32L341.7,32z"/>
</g>
<g>
	<g>
		<path class="st0" d="M104.5,43.2h3.8l4.3,8.1l1.6,3.6h0.1c-0.2-1.7-0.5-4-0.5-5.9v-5.8h3.5v16.3h-3.8l-4.3-8.1l-1.6-3.6h-0.1
			c0.2,1.8,0.5,4,0.5,5.9v5.8h-3.5V43.2z"/>
		<path class="st0" d="M122.8,51.2c0-5.3,3-8.4,7.4-8.4s7.4,3.1,7.4,8.4s-3,8.5-7.4,8.5S122.8,56.6,122.8,51.2z M133.8,51.2
			c0-3.3-1.4-5.2-3.6-5.2c-2.2,0-3.6,1.9-3.6,5.2s1.4,5.3,3.6,5.3C132.4,56.6,133.8,54.5,133.8,51.2z"/>
		<path class="st0" d="M146.4,46.2h-4.5v-3.1h12.7v3.1h-4.5v13.2h-3.7V46.2z"/>
	</g>
</g>
</svg>
